{
  "accessors": [
    {
      "bufferView": 2,
      "componentType": 5126,
      "count": 65532,
      "max": [
        238.20098876953125,
        93.113723754882812,
        95.04766845703125
      ],
      "min": [
        2.1328198909759521,
        4.8130569458007812,
        20.456199645996094
      ],
      "type": "VEC3"
    },
    {
      "bufferView": 2,
      "byteOffset": 786384,
      "componentType": 5126,
      "count": 65532,
      "max": [
        0.99999034404754639,
        0.99999773502349854,
        0.99998015165328979
      ],
      "min": [
        -0.9999735951423645,
        -0.999988853931427,
        -0.99980229139328003
      ],
      "type": "VEC3"
    },
    {
      "bufferView": 3,
      "componentType": 5126,
      "count": 65532,
      "max": [
        0.99998664855957031,
        0.99716037511825562,
        0.99999463558197021,
        1
      ],
      "min": [
        -0.99999290704727173,
        -0.9999430775642395,
        -0.9999958872795105,
        -1
      ],
      "type": "VEC4"
    },
    {
      "bufferView": 3,
      "byteOffset": 1048512,
      "componentType": 5126,
      "count": 65532,
      "max": [
        1,
        1,
        1,
        1
      ],
      "min": [
        1,
        1,
        1,
        1
      ],
      "type": "VEC4"
    },
    {
      "bufferView": 1,
      "componentType": 5126,
      "count": 65532,
      "max": [
        0.69721001386642456,
        0.98543000221252441
      ],
      "min": [
        0.012749999761581421,
        0.10764999687671661
      ],
      "type": "VEC2"
    },
    {
      "bufferView": 0,
      "componentType": 5125,
      "count": 341001,
      "max": [
        65531
      ],
      "min": [
        0
      ],
      "type": "SCALAR"
    },
    {
      "bufferView": 2,
      "byteOffset": 1572768,
      "componentType": 5126,
      "count": 65533,
      "max": [
        235.90780639648438,
        92.896865844726562,
        99.999992370605469
      ],
      "min": [
        1.9878530502319336,
        5.2322540283203125,
        25.594865798950195
      ],
      "type": "VEC3"
    },
    {
      "bufferView": 2,
      "byteOffset": 2359164,
      "componentType": 5126,
      "count": 65533,
      "max": [
        0.99998950958251953,
        0.9999992847442627,
        0.999991774559021
      ],
      "min": [
        -0.99997693300247192,
        -0.999988853931427,
        -0.99980229139328003
      ],
      "type": "VEC3"
    },
    {
      "bufferView": 3,
      "byteOffset": 2097024,
      "componentType": 5126,
      "count": 65533,
      "max": [
        0.99998462200164795,
        0.99984747171401978,
        0.99992740154266357,
        1
      ],
      "min": [
        -0.99953621625900269,
        -0.99998980760574341,
        -0.99989986419677734,
        -1
      ],
      "type": "VEC4"
    },
    {
      "bufferView": 3,
      "byteOffset": 3145552,
      "componentType": 5126,
      "count": 65533,
      "max": [
        1,
        1,
        1,
        1
      ],
      "min": [
        1,
        1,
        1,
        1
      ],
      "type": "VEC4"
    },
    {
      "bufferView": 1,
      "byteOffset": 524256,
      "componentType": 5126,
      "count": 65533,
      "max": [
        0.69246000051498413,
        0.99804997444152832
      ],
      "min": [
        0.018549999222159386,
        0.11302000284194946
      ],
      "type": "VEC2"
    },
    {
      "bufferView": 0,
      "byteOffset": 1364004,
      "componentType": 5125,
      "count": 332970,
      "max": [
        65532
      ],
      "min": [
        0
      ],
      "type": "SCALAR"
    },
    {
      "bufferView": 2,
      "byteOffset": 3145560,
      "componentType": 5126,
      "count": 65532,
      "max": [
        238.82255554199219,
        93.014007568359375,
        99.75946044921875
      ],
      "min": [
        0.50032800436019897,
        0,
        0.8778260350227356
      ],
      "type": "VEC3"
    },
    {
      "bufferView": 2,
      "byteOffset": 3931944,
      "componentType": 5126,
      "count": 65532,
      "max": [
        0.99995386600494385,
        0.9999992847442627,
        0.999991774559021
      ],
      "min": [
        -0.99997693300247192,
        -0.99998188018798828,
        -0.99998843669891357
      ],
      "type": "VEC3"
    },
    {
      "bufferView": 3,
      "byteOffset": 4194080,
      "componentType": 5126,
      "count": 65532,
      "max": [
        0.99998664855957031,
        0.99998152256011963,
        0.99998408555984497,
        1
      ],
      "min": [
        -0.99991923570632935,
        -0.99999535083770752,
        -0.99998390674591064,
        -1
      ],
      "type": "VEC4"
    },
    {
      "bufferView": 3,
      "byteOffset": 5242592,
      "componentType": 5126,
      "count": 65532,
      "max": [
        1,
        1,
        1,
        1
      ],
      "min": [
        1,
        1,
        1,
        1
      ],
      "type": "VEC4"
    },
    {
      "bufferView": 1,
      "byteOffset": 1048520,
      "componentType": 5126,
      "count": 65532,
      "max": [
        0.82497000694274902,
        0.99739998579025269
      ],
      "min": [
        0.0019600000232458115,
        0.038169998675584793
      ],
      "type": "VEC2"
    },
    {
      "bufferView": 0,
      "byteOffset": 2695884,
      "componentType": 5125,
      "count": 300804,
      "max": [
        65531
      ],
      "min": [
        0
      ],
      "type": "SCALAR"
    },
    {
      "bufferView": 2,
      "byteOffset": 4718328,
      "componentType": 5126,
      "count": 65532,
      "max": [
        239.075927734375,
        93.685234069824219,
        41.634674072265625
      ],
      "min": [
        0,
        0.19116973876953125,
        0.0048090000636875629
      ],
      "type": "VEC3"
    },
    {
      "bufferView": 2,
      "byteOffset": 5504712,
      "componentType": 5126,
      "count": 65532,
      "max": [
        0.99988150596618652,
        0.99999904632568359,
        0.99992483854293823
      ],
      "min": [
        -0.99967306852340698,
        -0.99999243021011353,
        -0.99999988079071045
      ],
      "type": "VEC3"
    },
    {
      "bufferView": 3,
      "byteOffset": 6291104,
      "componentType": 5126,
      "count": 65532,
      "max": [
        0.92308306694030762,
        0.98937034606933594,
        0.99999439716339111,
        -1
      ],
      "min": [
        -0.99053633213043213,
        -0.99501633644104004,
        -0.99989771842956543,
        -1
      ],
      "type": "VEC4"
    },
    {
      "bufferView": 3,
      "byteOffset": 7339616,
      "componentType": 5126,
      "count": 65532,
      "max": [
        1,
        1,
        1,
        1
      ],
      "min": [
        1,
        1,
        1,
        1
      ],
      "type": "VEC4"
    },
    {
      "bufferView": 1,
      "byteOffset": 1572776,
      "componentType": 5126,
      "count": 65532,
      "max": [
        0.97329002618789673,
        0.61330002546310425
      ],
      "min": [
        0.44642999768257141,
        0.026419999077916145
      ],
      "type": "VEC2"
    },
    {
      "bufferView": 0,
      "byteOffset": 3899100,
      "componentType": 5125,
      "count": 362517,
      "max": [
        65531
      ],
      "min": [
        0
      ],
      "type": "SCALAR"
    },
    {
      "bufferView": 2,
      "byteOffset": 6291096,
      "componentType": 5126,
      "count": 22275,
      "max": [
        238.86618041992188,
        93.679885864257812,
        87.725509643554688
      ],
      "min": [
        0.082101002335548401,
        2.1061325073242188,
        0
      ],
      "type": "VEC3"
    },
    {
      "bufferView": 2,
      "byteOffset": 6558396,
      "componentType": 5126,
      "count": 22275,
      "max": [
        0.99968743324279785,
        0.99999773502349854,
        0.99990379810333252
      ],
      "min": [
        -0.99967306852340698,
        -0.99977999925613403,
        -0.99999827146530151
      ],
      "type": "VEC3"
    },
    {
      "bufferView": 3,
      "byteOffset": 8388128,
      "componentType": 5126,
      "count": 22275,
      "max": [
        0.99913603067398071,
        0.99975240230560303,
        0.99993008375167847,
        -1
      ],
      "min": [
        -0.99443429708480835,
        -0.99941283464431763,
        -0.99823617935180664,
        -1
      ],
      "type": "VEC4"
    },
    {
      "bufferView": 3,
      "byteOffset": 8744528,
      "componentType": 5126,
      "count": 22275,
      "max": [
        1,
        1,
        1,
        1
      ],
      "min": [
        1,
        1,
        1,
        1
      ],
      "type": "VEC4"
    },
    {
      "bufferView": 1,
      "byteOffset": 2097032,
      "componentType": 5126,
      "count": 22275,
      "max": [
        0.97070997953414917,
        0.98128002882003784
      ],
      "min": [
        0.034230001270771027,
        0.0019600000232458115
      ],
      "type": "VEC2"
    },
    {
      "bufferView": 0,
      "byteOffset": 5349168,
      "componentType": 5125,
      "count": 85668,
      "max": [
        22274
      ],
      "min": [
        0
      ],
      "type": "SCALAR"
    }
  ],
  "asset": {
    "extras": {
      "author": "Nevena Knežević (https://sketchfab.com/gavez)",
      "license": "CC-BY-4.0 (http://creativecommons.org/licenses/by/4.0/)",
      "source": "https://sketchfab.com/models/c4bcfa3c2ca54e4f95dd66fc8f5a4fa3",
      "title": "Another old shoe of mine"
    },
    "generator": "Sketchfab-3.18.5",
    "version": "2.0"
  },
  "bufferViews": [
    {
      "buffer": 0,
      "byteLength": 5691840,
      "byteOffset": 0,
      "name": "floatBufferViews",
      "target": 34963
    },
    {
      "buffer": 0,
      "byteLength": 2275232,
      "byteOffset": 5691840,
      "byteStride": 8,
      "name": "floatBufferViews",
      "target": 34962
    },
    {
      "buffer": 0,
      "byteLength": 6825696,
      "byteOffset": 7967072,
      "byteStride": 12,
      "name": "floatBufferViews",
      "target": 34962
    },
    {
      "buffer": 0,
      "byteLength": 9100928,
      "byteOffset": 14792768,
      "byteStride": 16,
      "name": "floatBufferViews",
      "target": 34962
    }
  ],
  "buffers": [
    {
      "byteLength": 23893696,
      "uri": "scene.bin"
    }
  ],
  "extensionsUsed": [
    "KHR_materials_unlit"
  ],
  "images": [
    {
      "uri": "textures/material_baseColor.png"
    }
  ],
  "materials": [
    {
      "doubleSided": true,
      "emissiveFactor": [
        0,
        0,
        0
      ],
      "extensions": {
        "KHR_materials_unlit": {}
      },
      "name": "material",
      "pbrMetallicRoughness": {
        "baseColorFactor": [
          1,
          1,
          1,
          1
        ],
        "baseColorTexture": {
          "index": 0,
          "texCoord": 0
        },
        "metallicFactor": 0,
        "roughnessFactor": 1
      }
    }
  ],
  "meshes": [
    {
      "primitives": [
        {
          "attributes": {
            "COLOR_0": 3,
            "NORMAL": 1,
            "POSITION": 0,
            "TANGENT": 2,
            "TEXCOORD_0": 4
          },
          "indices": 5,
          "material": 0,
          "mode": 4
        }
      ]
    },
    {
      "primitives": [
        {
          "attributes": {
            "COLOR_0": 9,
            "NORMAL": 7,
            "POSITION": 6,
            "TANGENT": 8,
            "TEXCOORD_0": 10
          },
          "indices": 11,
          "material": 0,
          "mode": 4
        }
      ]
    },
    {
      "primitives": [
        {
          "attributes": {
            "COLOR_0": 15,
            "NORMAL": 13,
            "POSITION": 12,
            "TANGENT": 14,
            "TEXCOORD_0": 16
          },
          "indices": 17,
          "material": 0,
          "mode": 4
        }
      ]
    },
    {
      "primitives": [
        {
          "attributes": {
            "COLOR_0": 21,
            "NORMAL": 19,
            "POSITION": 18,
            "TANGENT": 20,
            "TEXCOORD_0": 22
          },
          "indices": 23,
          "material": 0,
          "mode": 4
        }
      ]
    },
    {
      "primitives": [
        {
          "attributes": {
            "COLOR_0": 27,
            "NORMAL": 25,
            "POSITION": 24,
            "TANGENT": 26,
            "TEXCOORD_0": 28
          },
          "indices": 29,
          "material": 0,
          "mode": 4
        }
      ]
    }
  ],
  "nodes": [
    {
      "children": [
        1
      ],
      "name": "RootNode (gltf orientation matrix)",
      "rotation": [
        -0.70710678118654746,
        -0,
        -0,
        0.70710678118654757
      ]
    },
    {
      "children": [
        2
      ],
      "name": "RootNode (model correction matrix)"
    },
    {
      "children": [
        3,
        4,
        5,
        6,
        7
      ],
      "matrix": [
        1,
        0,
        0,
        0,
        0,
        1,
        0,
        0,
        0,
        0,
        1,
        0,
        0,
        -93.685234069824219,
        3.9999999899009708e-06,
        1
      ],
      "name": "test.obj.cleaner.gles"
    },
    {
      "mesh": 0,
      "name": ""
    },
    {
      "mesh": 1,
      "name": ""
    },
    {
      "mesh": 2,
      "name": ""
    },
    {
      "mesh": 3,
      "name": ""
    },
    {
      "mesh": 4,
      "name": ""
    }
  ],
  "samplers": [
    {
      "magFilter": 9729,
      "minFilter": 9987,
      "wrapS": 10497,
      "wrapT": 10497
    }
  ],
  "scene": 0,
  "scenes": [
    {
      "name": "OSG_Scene",
      "nodes": [
        0
      ]
    }
  ],
  "textures": [
    {
      "sampler": 0,
      "source": 0
    }
  ]
}

