{
  "accessors": [
    {
      "bufferView": 3,
      "componentType": 5126,
      "count": 1252,
      "max": [
        -613.06243896484375,
        26.269033432006836,
        26.26904296875
      ],
      "min": [
        -763.6806640625,
        -26.269033432006836,
        -26.269033432006836
      ],
      "type": "VEC3"
    },
    {
      "bufferView": 3,
      "byteOffset": 15024,
      "componentType": 5126,
      "count": 1252,
      "max": [
        1,
        1,
        1
      ],
      "min": [
        -1,
        -1,
        -1
      ],
      "type": "VEC3"
    },
    {
      "bufferView": 4,
      "componentType": 5126,
      "count": 1252,
      "max": [
        1,
        0.049141447991132736,
        1,
        1
      ],
      "min": [
        -1,
        -0.049136683344841003,
        -1,
        1
      ],
      "type": "VEC4"
    },
    {
      "bufferView": 2,
      "componentType": 5126,
      "count": 1252,
      "max": [
        0.52321076393127441,
        0.59498095512390137
      ],
      "min": [
        0.27361428737640381,
        0.36712062358856201
      ],
      "type": "VEC2"
    },
    {
      "bufferView": 2,
      "byteOffset": 10016,
      "componentType": 5126,
      "count": 1252,
      "max": [
        1.4374998807907104,
        1
      ],
      "min": [
        0,
        0
      ],
      "type": "VEC2"
    },
    {
      "bufferView": 1,
      "componentType": 5125,
      "count": 5760,
      "max": [
        1251
      ],
      "min": [
        0
      ],
      "type": "SCALAR"
    },
    {
      "bufferView": 3,
      "byteOffset": 30048,
      "componentType": 5126,
      "count": 626,
      "max": [
        319.17098999023438,
        221.09043884277344,
        221.09049987792969
      ],
      "min": [
        -123.00991821289062,
        -221.09043884277344,
        -221.09043884277344
      ],
      "type": "VEC3"
    },
    {
      "bufferView": 3,
      "byteOffset": 37560,
      "componentType": 5126,
      "count": 626,
      "max": [
        1,
        1,
        1
      ],
      "min": [
        -1,
        -1,
        -1
      ],
      "type": "VEC3"
    },
    {
      "bufferView": 4,
      "byteOffset": 20032,
      "componentType": 5126,
      "count": 626,
      "max": [
        1,
        0.049132943153381348,
        1,
        1
      ],
      "min": [
        -1,
        -0.049138009548187256,
        -1,
        1
      ],
      "type": "VEC4"
    },
    {
      "bufferView": 2,
      "byteOffset": 20032,
      "componentType": 5126,
      "count": 626,
      "max": [
        0.98919075727462769,
        0.9980851411819458
      ],
      "min": [
        0.002889588475227356,
        0.81373751163482666
      ],
      "type": "VEC2"
    },
    {
      "bufferView": 2,
      "byteOffset": 25040,
      "componentType": 5126,
      "count": 626,
      "max": [
        1.4374998807907104,
        1
      ],
      "min": [
        0,
        0
      ],
      "type": "VEC2"
    },
    {
      "bufferView": 1,
      "byteOffset": 23040,
      "componentType": 5125,
      "count": 2880,
      "max": [
        625
      ],
      "min": [
        0
      ],
      "type": "SCALAR"
    },
    {
      "bufferView": 3,
      "byteOffset": 45072,
      "componentType": 5126,
      "count": 627,
      "max": [
        1391.1661376953125,
        1391.165771484375,
        1391.1663818359375
      ],
      "min": [
        -1391.1656494140625,
        -1391.165771484375,
        -1391.1658935546875
      ],
      "type": "VEC3"
    },
    {
      "bufferView": 3,
      "byteOffset": 52596,
      "componentType": 5126,
      "count": 627,
      "max": [
        1,
        1,
        1
      ],
      "min": [
        -1,
        -1,
        -1
      ],
      "type": "VEC3"
    },
    {
      "bufferView": 4,
      "byteOffset": 30048,
      "componentType": 5126,
      "count": 627,
      "max": [
        1,
        0.049138225615024567,
        1,
        -1
      ],
      "min": [
        -1,
        -0.049133118242025375,
        -1,
        -1
      ],
      "type": "VEC4"
    },
    {
      "bufferView": 2,
      "byteOffset": 30048,
      "componentType": 5126,
      "count": 627,
      "max": [
        0.99901914596557617,
        0.93173706531524658
      ],
      "min": [
        0.00098081096075475216,
        0.0012893860694020987
      ],
      "type": "VEC2"
    },
    {
      "bufferView": 2,
      "byteOffset": 35064,
      "componentType": 5126,
      "count": 627,
      "max": [
        1.4374998807907104,
        1
      ],
      "min": [
        0,
        0
      ],
      "type": "VEC2"
    },
    {
      "bufferView": 1,
      "byteOffset": 34560,
      "componentType": 5125,
      "count": 2880,
      "max": [
        626
      ],
      "min": [
        0
      ],
      "type": "SCALAR"
    },
    {
      "bufferView": 5,
      "componentType": 5126,
      "count": 10,
      "max": [
        1,
        0,
        0,
        0,
        0,
        1,
        0,
        0,
        0,
        0,
        1,
        0,
        7.4857769012451172,
        5.9604644775390625e-08,
        0,
        1
      ],
      "min": [
        0.0099999997764825821,
        0,
        0,
        0,
        0,
        0.0099999997764825821,
        0,
        0,
        0,
        0,
        0.0099999997764825821,
        0,
        -0.980804443359375,
        0,
        -6.1356486185104586e-06,
        1
      ],
      "type": "MAT4"
    },
    {
      "bufferView": 0,
      "componentType": 5123,
      "count": 1252,
      "max": [
        8,
        8,
        8,
        8
      ],
      "min": [
        6,
        8,
        8,
        8
      ],
      "type": "VEC4"
    },
    {
      "bufferView": 4,
      "byteOffset": 40080,
      "componentType": 5126,
      "count": 1252,
      "max": [
        1,
        0,
        0,
        0
      ],
      "min": [
        1,
        0,
        0,
        0
      ],
      "type": "VEC4"
    },
    {
      "bufferView": 0,
      "byteOffset": 10016,
      "componentType": 5123,
      "count": 626,
      "max": [
        3,
        3,
        3,
        3
      ],
      "min": [
        3,
        3,
        3,
        3
      ],
      "type": "VEC4"
    },
    {
      "bufferView": 4,
      "byteOffset": 60112,
      "componentType": 5126,
      "count": 626,
      "max": [
        1,
        0,
        0,
        0
      ],
      "min": [
        1,
        0,
        0,
        0
      ],
      "type": "VEC4"
    },
    {
      "bufferView": 0,
      "byteOffset": 15024,
      "componentType": 5123,
      "count": 627,
      "max": [
        1,
        1,
        1,
        1
      ],
      "min": [
        1,
        1,
        1,
        1
      ],
      "type": "VEC4"
    },
    {
      "bufferView": 4,
      "byteOffset": 70128,
      "componentType": 5126,
      "count": 627,
      "max": [
        1,
        0,
        0,
        0
      ],
      "min": [
        1,
        0,
        0,
        0
      ],
      "type": "VEC4"
    },
    {
      "bufferView": 6,
      "componentType": 5126,
      "count": 1982,
      "max": [
        33.333332061767578
      ],
      "min": [
        0
      ],
      "type": "SCALAR"
    },
    {
      "bufferView": 8,
      "componentType": 5126,
      "count": 1982,
      "max": [
        0.7071068286895752,
        0.7071068286895752,
        0.70710670948028564,
        0.70710670948028564
      ],
      "min": [
        -0.49929201602935791,
        -0.50000005960464478,
        -0.49999997019767761,
        -0.49929195642471313
      ],
      "type": "VEC4"
    },
    {
      "bufferView": 6,
      "byteOffset": 7928,
      "componentType": 5126,
      "count": 1982,
      "max": [
        33.333332061767578
      ],
      "min": [
        0
      ],
      "type": "SCALAR"
    },
    {
      "bufferView": 8,
      "byteOffset": 31712,
      "componentType": 5126,
      "count": 1982,
      "max": [
        0.7071068286895752,
        0.7071068286895752,
        0.70710670948028564,
        0.70710670948028564
      ],
      "min": [
        -0.49858230352401733,
        -0.49999991059303284,
        -0.49999982118606567,
        -0.49858221411705017
      ],
      "type": "VEC4"
    },
    {
      "bufferView": 6,
      "byteOffset": 15856,
      "componentType": 5126,
      "count": 225,
      "max": [
        33.333332061767578
      ],
      "min": [
        0
      ],
      "type": "SCALAR"
    },
    {
      "bufferView": 7,
      "componentType": 5126,
      "count": 225,
      "max": [
        -1.0924615859985352,
        -0.63031703233718872,
        -4.9246864364249632e-08
      ],
      "min": [
        -1.0924615859985352,
        -0.63031703233718872,
        -4.9247205424762797e-08
      ],
      "type": "VEC3"
    },
    {
      "bufferView": 6,
      "byteOffset": 16756,
      "componentType": 5126,
      "count": 1001,
      "max": [
        33.333332061767578
      ],
      "min": [
        0
      ],
      "type": "SCALAR"
    },
    {
      "bufferView": 8,
      "byteOffset": 63424,
      "componentType": 5126,
      "count": 1001,
      "max": [
        7.9409338805090657e-23,
        1.3877787807814457e-16,
        5.2939559203393771e-23,
        1
      ],
      "min": [
        -1.0587911840678754e-22,
        -1.3877787807814457e-16,
        -6.6174449004242214e-23,
        1
      ],
      "type": "VEC4"
    },
    {
      "bufferView": 6,
      "byteOffset": 20760,
      "componentType": 5126,
      "count": 1839,
      "max": [
        33.333332061767578
      ],
      "min": [
        0
      ],
      "type": "SCALAR"
    },
    {
      "bufferView": 7,
      "byteOffset": 2700,
      "componentType": 5126,
      "count": 1839,
      "max": [
        3.1175062531474396e-13,
        0.63031697273254395,
        1.1368683772161603e-13
      ],
      "min": [
        0,
        0.63031697273254395,
        0
      ],
      "type": "VEC3"
    },
    {
      "bufferView": 6,
      "byteOffset": 28116,
      "componentType": 5126,
      "count": 1956,
      "max": [
        33.333332061767578
      ],
      "min": [
        0
      ],
      "type": "SCALAR"
    },
    {
      "bufferView": 8,
      "byteOffset": 79440,
      "componentType": 5126,
      "count": 1956,
      "max": [
        8.6594911202550999e-17,
        1,
        8.6592833324852266e-17,
        1
      ],
      "min": [
        -8.6592833324852266e-17,
        -0.86417543888092041,
        -8.6594911202550999e-17,
        -0.49673295021057129
      ],
      "type": "VEC4"
    },
    {
      "bufferView": 6,
      "byteOffset": 35940,
      "componentType": 5126,
      "count": 8,
      "max": [
        33.333332061767578
      ],
      "min": [
        0
      ],
      "type": "SCALAR"
    },
    {
      "bufferView": 7,
      "byteOffset": 24768,
      "componentType": 5126,
      "count": 8,
      "max": [
        -7.3741192817687988,
        -1.9838055372238159,
        -8.5924727954989066e-07
      ],
      "min": [
        -7.374119758605957,
        -1.9838055372238159,
        -8.5924739323672839e-07
      ],
      "type": "VEC3"
    },
    {
      "bufferView": 6,
      "byteOffset": 35972,
      "componentType": 5126,
      "count": 1001,
      "max": [
        33.333332061767578
      ],
      "min": [
        0
      ],
      "type": "SCALAR"
    },
    {
      "bufferView": 8,
      "byteOffset": 110736,
      "componentType": 5126,
      "count": 1001,
      "max": [
        7.9409338805090657e-23,
        1.6653345369377348e-16,
        3.9704669402545328e-23,
        1
      ],
      "min": [
        -5.2939559203393771e-23,
        -1.6653345369377348e-16,
        -3.9704669402545328e-23,
        1
      ],
      "type": "VEC4"
    },
    {
      "bufferView": 6,
      "byteOffset": 39976,
      "componentType": 5126,
      "count": 2006,
      "max": [
        33.333332061767578
      ],
      "min": [
        0
      ],
      "type": "SCALAR"
    },
    {
      "bufferView": 8,
      "byteOffset": 126752,
      "componentType": 5126,
      "count": 2006,
      "max": [
        0.7071068286895752,
        0.7071068286895752,
        0.70710670948028564,
        0.70710670948028564
      ],
      "min": [
        -0.5,
        -0.49899908900260925,
        -0.49899902939796448,
        -0.49999994039535522
      ],
      "type": "VEC4"
    }
  ],
  "animations": [
    {
      "channels": [
        {
          "sampler": 0,
          "target": {
            "node": 8,
            "path": "rotation"
          }
        },
        {
          "sampler": 1,
          "target": {
            "node": 10,
            "path": "rotation"
          }
        },
        {
          "sampler": 2,
          "target": {
            "node": 15,
            "path": "translation"
          }
        },
        {
          "sampler": 3,
          "target": {
            "node": 15,
            "path": "rotation"
          }
        },
        {
          "sampler": 4,
          "target": {
            "node": 14,
            "path": "translation"
          }
        },
        {
          "sampler": 5,
          "target": {
            "node": 14,
            "path": "rotation"
          }
        },
        {
          "sampler": 6,
          "target": {
            "node": 13,
            "path": "translation"
          }
        },
        {
          "sampler": 7,
          "target": {
            "node": 13,
            "path": "rotation"
          }
        },
        {
          "sampler": 8,
          "target": {
            "node": 12,
            "path": "rotation"
          }
        }
      ],
      "name": "Armature|SpaceAction",
      "samplers": [
        {
          "input": 25,
          "interpolation": "LINEAR",
          "output": 26
        },
        {
          "input": 27,
          "interpolation": "LINEAR",
          "output": 28
        },
        {
          "input": 29,
          "interpolation": "LINEAR",
          "output": 30
        },
        {
          "input": 31,
          "interpolation": "LINEAR",
          "output": 32
        },
        {
          "input": 33,
          "interpolation": "LINEAR",
          "output": 34
        },
        {
          "input": 35,
          "interpolation": "LINEAR",
          "output": 36
        },
        {
          "input": 37,
          "interpolation": "LINEAR",
          "output": 38
        },
        {
          "input": 39,
          "interpolation": "LINEAR",
          "output": 40
        },
        {
          "input": 41,
          "interpolation": "LINEAR",
          "output": 42
        }
      ]
    }
  ],
  "asset": {
    "extras": {
      "author": "Blender3D (https://sketchfab.com/Blender3D)",
      "license": "CC-BY-4.0 (http://creativecommons.org/licenses/by/4.0/)",
      "source": "https://sketchfab.com/models/d165714f85d14c5b9bc3da8c43d5f89f",
      "title": "Fake Space"
    },
    "generator": "Sketchfab-3.45.3",
    "version": "2.0"
  },
  "bufferViews": [
    {
      "buffer": 0,
      "byteLength": 20040,
      "byteOffset": 0,
      "byteStride": 8,
      "name": "shortBufferViews",
      "target": 34962
    },
    {
      "buffer": 0,
      "byteLength": 46080,
      "byteOffset": 20040,
      "name": "floatBufferViews",
      "target": 34963
    },
    {
      "buffer": 0,
      "byteLength": 40080,
      "byteOffset": 66120,
      "byteStride": 8,
      "name": "floatBufferViews",
      "target": 34962
    },
    {
      "buffer": 0,
      "byteLength": 60120,
      "byteOffset": 106200,
      "byteStride": 12,
      "name": "floatBufferViews",
      "target": 34962
    },
    {
      "buffer": 0,
      "byteLength": 80160,
      "byteOffset": 166320,
      "byteStride": 16,
      "name": "floatBufferViews",
      "target": 34962
    },
    {
      "buffer": 0,
      "byteLength": 640,
      "byteOffset": 246480,
      "byteStride": 64,
      "name": "floatBufferViews"
    },
    {
      "buffer": 0,
      "byteLength": 48000,
      "byteOffset": 247120,
      "name": "floatBufferViews"
    },
    {
      "buffer": 0,
      "byteLength": 24864,
      "byteOffset": 295120,
      "byteStride": 12,
      "name": "floatBufferViews"
    },
    {
      "buffer": 0,
      "byteLength": 158848,
      "byteOffset": 319984,
      "byteStride": 16,
      "name": "floatBufferViews"
    }
  ],
  "buffers": [
    {
      "byteLength": 478832,
      "uri": "scene.bin"
    }
  ],
  "extensionsRequired": [
    "KHR_materials_pbrSpecularGlossiness"
  ],
  "extensionsUsed": [
    "KHR_materials_pbrSpecularGlossiness"
  ],
  "images": [
    {
      "uri": "textures/material_diffuse.jpeg"
    },
    {
      "uri": "textures/material_emissive.jpeg"
    },
    {
      "uri": "textures/Gray_diffuse.jpeg"
    },
    {
      "uri": "textures/SPace_diffuse.jpeg"
    },
    {
      "uri": "textures/SPace_emissive.jpeg"
    }
  ],
  "materials": [
    {
      "doubleSided": true,
      "emissiveFactor": [
        0,
        0,
        0
      ],
      "extensions": {
        "KHR_materials_pbrSpecularGlossiness": {
          "diffuseFactor": [
            1,
            1,
            1,
            1
          ],
          "diffuseTexture": {
            "index": 2,
            "texCoord": 0
          },
          "glossinessFactor": 0.17605827430000001,
          "specularFactor": [
            0,
            0,
            0
          ]
        }
      },
      "name": "Gray"
    },
    {
      "doubleSided": true,
      "emissiveFactor": [
        1,
        1,
        1
      ],
      "emissiveTexture": {
        "index": 1,
        "texCoord": 0
      },
      "extensions": {
        "KHR_materials_pbrSpecularGlossiness": {
          "diffuseFactor": [
            1,
            1,
            1,
            1
          ],
          "diffuseTexture": {
            "index": 0,
            "texCoord": 0
          },
          "glossinessFactor": 0.17605827430000001,
          "specularFactor": [
            0,
            0,
            0
          ]
        }
      },
      "name": "material"
    },
    {
      "doubleSided": false,
      "emissiveFactor": [
        1,
        1,
        1
      ],
      "emissiveTexture": {
        "index": 4,
        "texCoord": 0
      },
      "extensions": {
        "KHR_materials_pbrSpecularGlossiness": {
          "diffuseFactor": [
            1,
            1,
            1,
            1
          ],
          "diffuseTexture": {
            "index": 3,
            "texCoord": 0
          },
          "glossinessFactor": 0.17605827430000001,
          "specularFactor": [
            0,
            0,
            0
          ]
        }
      },
      "name": "SPace"
    }
  ],
  "meshes": [
    {
      "name": "Sphere.003_Gray_0",
      "primitives": [
        {
          "attributes": {
            "JOINTS_0": 19,
            "NORMAL": 1,
            "POSITION": 0,
            "TANGENT": 2,
            "TEXCOORD_0": 3,
            "TEXCOORD_1": 4,
            "WEIGHTS_0": 20
          },
          "indices": 5,
          "material": 0,
          "mode": 4
        }
      ]
    },
    {
      "name": "Sphere.003_SUn_0",
      "primitives": [
        {
          "attributes": {
            "JOINTS_0": 21,
            "NORMAL": 7,
            "POSITION": 6,
            "TANGENT": 8,
            "TEXCOORD_0": 9,
            "TEXCOORD_1": 10,
            "WEIGHTS_0": 22
          },
          "indices": 11,
          "material": 1,
          "mode": 4
        }
      ]
    },
    {
      "name": "Sphere.003_SPace_0",
      "primitives": [
        {
          "attributes": {
            "JOINTS_0": 23,
            "NORMAL": 13,
            "POSITION": 12,
            "TANGENT": 14,
            "TEXCOORD_0": 15,
            "TEXCOORD_1": 16,
            "WEIGHTS_0": 24
          },
          "indices": 17,
          "material": 2,
          "mode": 4
        }
      ]
    }
  ],
  "nodes": [
    {
      "children": [
        1
      ],
      "name": "RootNode (gltf orientation matrix)",
      "rotation": [
        -0.70710678118654746,
        -0,
        -0,
        0.70710678118654757
      ]
    },
    {
      "children": [
        2
      ],
      "name": "RootNode (model correction matrix)"
    },
    {
      "children": [
        3
      ],
      "matrix": [
        1,
        0,
        0,
        0,
        0,
        0,
        1,
        0,
        0,
        -1,
        0,
        0,
        0,
        0,
        0,
        1
      ],
      "name": "Sun.fbx"
    },
    {
      "children": [
        4
      ],
      "name": ""
    },
    {
      "children": [
        5,
        21
      ],
      "name": "RootNode"
    },
    {
      "children": [
        6
      ],
      "name": "Armature",
      "rotation": [
        -0.7071068286895752,
        0,
        0,
        0.70710670948028564
      ],
      "scale": [
        100,
        100,
        100
      ],
      "translation": [
        -0.00016689300537109375,
        0,
        0.00061356485821306705
      ]
    },
    {
      "children": [
        7,
        18,
        19,
        20,
        17
      ],
      "name": ""
    },
    {
      "children": [
        8,
        10,
        12
      ],
      "name": "_rootJoint"
    },
    {
      "children": [
        9
      ],
      "name": "Bone_00",
      "rotation": [
        0.7071068286895752,
        0,
        0,
        0.70710670948028564
      ]
    },
    {
      "name": "Bone_end_06",
      "translation": [
        0,
        4,
        0
      ]
    },
    {
      "children": [
        11
      ],
      "name": "Bone.001_01",
      "rotation": [
        0.7071068286895752,
        0,
        0,
        0.70710670948028564
      ],
      "translation": [
        0.98080611228942871,
        5.1605434236989822e-06,
        0
      ]
    },
    {
      "name": "Bone.001_end_07",
      "translation": [
        0,
        1.9838055372238159,
        0
      ]
    },
    {
      "children": [
        13
      ],
      "name": "Bone.005_02",
      "rotation": [
        0.7071068286895752,
        0,
        0,
        0.70710670948028564
      ],
      "translation": [
        0.98080611228942871,
        5.1605434236989822e-06,
        1.9838055372238159
      ]
    },
    {
      "children": [
        14
      ],
      "name": "Bone.002_03",
      "translation": [
        -7.374119758605957,
        -1.9838055372238159,
        -8.5924739323672839e-07
      ]
    },
    {
      "children": [
        15
      ],
      "name": "Bone.004_04",
      "translation": [
        0,
        0.63031697273254395,
        0
      ]
    },
    {
      "children": [
        16
      ],
      "name": "Bone.003_05",
      "translation": [
        -1.0924615859985352,
        -0.63031703233718872,
        -4.9246864364249632e-08
      ]
    },
    {
      "name": "Bone.003_end_08",
      "translation": [
        0,
        0.56703764200210571,
        0
      ]
    },
    {
      "matrix": [
        100,
        0,
        0,
        0,
        0,
        6.1232339957367661e-15,
        -100,
        0,
        0,
        100,
        6.1232339957367661e-15,
        0,
        0.0003337860107421875,
        0,
        0.00023841857546358369,
        1
      ],
      "name": ""
    },
    {
      "mesh": 0,
      "name": "",
      "skin": 0
    },
    {
      "mesh": 1,
      "name": "",
      "skin": 0
    },
    {
      "mesh": 2,
      "name": "",
      "skin": 0
    },
    {
      "name": "Sphere.003",
      "rotation": [
        -0.7071068286895752,
        0,
        0,
        0.70710670948028564
      ],
      "scale": [
        100,
        100,
        100
      ],
      "translation": [
        0.0003337860107421875,
        0,
        0.0002384185791015625
      ]
    }
  ],
  "samplers": [
    {
      "magFilter": 9729,
      "minFilter": 9987,
      "wrapS": 10497,
      "wrapT": 10497
    }
  ],
  "scene": 0,
  "scenes": [
    {
      "name": "OSG_Scene",
      "nodes": [
        0
      ]
    }
  ],
  "skins": [
    {
      "inverseBindMatrices": 18,
      "joints": [
        7,
        8,
        9,
        10,
        11,
        12,
        13,
        14,
        15,
        16
      ],
      "skeleton": 7
    }
  ],
  "textures": [
    {
      "sampler": 0,
      "source": 0
    },
    {
      "sampler": 0,
      "source": 1
    },
    {
      "sampler": 0,
      "source": 2
    },
    {
      "sampler": 0,
      "source": 3
    },
    {
      "sampler": 0,
      "source": 4
    }
  ]
}

