{
  "accessors": [
    {
      "bufferView": 2,
      "componentType": 5126,
      "count": 65532,
      "max": [
        6.1989240646362305,
        0.19714699685573578,
        3.2888600826263428
      ],
      "min": [
        -6.3938150405883789,
        -9.7381248474121094,
        -4.6545300483703613
      ],
      "type": "VEC3"
    },
    {
      "bufferView": 2,
      "byteOffset": 786384,
      "componentType": 5126,
      "count": 65532,
      "max": [
        1,
        0.99920201301574707,
        0.99999922513961792
      ],
      "min": [
        -0.99998921155929565,
        -0.9999995231628418,
        -0.99995088577270508
      ],
      "type": "VEC3"
    },
    {
      "bufferView": 3,
      "componentType": 5126,
      "count": 65532,
      "max": [
        0.999977707862854,
        0.99998974800109863,
        0.99999958276748657,
        1
      ],
      "min": [
        -0.99998956918716431,
        -0.9998021125793457,
        -0.99975866079330444,
        -1
      ],
      "type": "VEC4"
    },
    {
      "bufferView": 1,
      "componentType": 5126,
      "count": 65532,
      "max": [
        0.999580979347229,
        0.99861502647399902
      ],
      "min": [
        0.00025099999038502574,
        0.00045299998600967228
      ],
      "type": "VEC2"
    },
    {
      "bufferView": 0,
      "componentType": 5125,
      "count": 296850,
      "max": [
        65531
      ],
      "min": [
        0
      ],
      "type": "SCALAR"
    },
    {
      "bufferView": 2,
      "byteOffset": 1572768,
      "componentType": 5126,
      "count": 65532,
      "max": [
        6.2043118476867676,
        0.23808200657367706,
        3.2818000316619873
      ],
      "min": [
        -6.3994622230529785,
        -9.7439508438110352,
        -4.6545300483703613
      ],
      "type": "VEC3"
    },
    {
      "bufferView": 2,
      "byteOffset": 2359152,
      "componentType": 5126,
      "count": 65532,
      "max": [
        0.99998986721038818,
        0.99996864795684814,
        0.99999946355819702
      ],
      "min": [
        -0.99998748302459717,
        -1,
        -0.99999988079071045
      ],
      "type": "VEC3"
    },
    {
      "bufferView": 3,
      "byteOffset": 1048512,
      "componentType": 5126,
      "count": 65532,
      "max": [
        0.99995309114456177,
        0.99999290704727173,
        0.99998176097869873,
        1
      ],
      "min": [
        -0.99999642372131348,
        -0.9998893141746521,
        -0.99987542629241943,
        -1
      ],
      "type": "VEC4"
    },
    {
      "bufferView": 1,
      "byteOffset": 524256,
      "componentType": 5126,
      "count": 65532,
      "max": [
        0.99999898672103882,
        0.99999898672103882
      ],
      "min": [
        0,
        0.00046800001291558146
      ],
      "type": "VEC2"
    },
    {
      "bufferView": 0,
      "byteOffset": 1187400,
      "componentType": 5125,
      "count": 226866,
      "max": [
        65531
      ],
      "min": [
        0
      ],
      "type": "SCALAR"
    },
    {
      "bufferView": 2,
      "byteOffset": 3145536,
      "componentType": 5126,
      "count": 34755,
      "max": [
        6.2043118476867676,
        0.24257400631904602,
        3.2888600826263428
      ],
      "min": [
        -6.3994622230529785,
        -9.7439508438110352,
        -4.6539788246154785
      ],
      "type": "VEC3"
    },
    {
      "bufferView": 2,
      "byteOffset": 3562596,
      "componentType": 5126,
      "count": 34755,
      "max": [
        0.99999862909317017,
        1,
        1
      ],
      "min": [
        -0.99999749660491943,
        -0.99999052286148071,
        -0.99999934434890747
      ],
      "type": "VEC3"
    },
    {
      "bufferView": 3,
      "byteOffset": 2097024,
      "componentType": 5126,
      "count": 34755,
      "max": [
        0.99995899200439453,
        0.99998974800109863,
        0.99992895126342773,
        1
      ],
      "min": [
        -0.99999642372131348,
        -0.99999731779098511,
        -0.9999963641166687,
        -1
      ],
      "type": "VEC4"
    },
    {
      "bufferView": 1,
      "byteOffset": 1048512,
      "componentType": 5126,
      "count": 34755,
      "max": [
        0.99991500377655029,
        0.99991399049758911
      ],
      "min": [
        0,
        0.00046300000394694507
      ],
      "type": "VEC2"
    },
    {
      "bufferView": 0,
      "byteOffset": 2094864,
      "componentType": 5125,
      "count": 61929,
      "max": [
        34754
      ],
      "min": [
        0
      ],
      "type": "SCALAR"
    }
  ],
  "asset": {
    "extras": {
      "author": "3D-RENDER (https://sketchfab.com/3D-RENDER)",
      "license": "CC-BY-4.0 (http://creativecommons.org/licenses/by/4.0/)",
      "source": "https://sketchfab.com/models/6110ed8392a34e829c4fa0d34ab2e301",
      "title": "Nike SF-AF1 Air Force 1 Wheat Sneakers"
    },
    "generator": "Sketchfab-4.31.0",
    "version": "2.0"
  },
  "bufferViews": [
    {
      "buffer": 0,
      "byteLength": 2342580,
      "byteOffset": 0,
      "name": "floatBufferViews",
      "target": 34963
    },
    {
      "buffer": 0,
      "byteLength": 1326552,
      "byteOffset": 2342580,
      "byteStride": 8,
      "name": "floatBufferViews",
      "target": 34962
    },
    {
      "buffer": 0,
      "byteLength": 3979656,
      "byteOffset": 3669132,
      "byteStride": 12,
      "name": "floatBufferViews",
      "target": 34962
    },
    {
      "buffer": 0,
      "byteLength": 2653104,
      "byteOffset": 7648788,
      "byteStride": 16,
      "name": "floatBufferViews",
      "target": 34962
    }
  ],
  "buffers": [
    {
      "byteLength": 10301892,
      "uri": "scene.bin"
    }
  ],
  "extensionsUsed": [
    "KHR_materials_unlit"
  ],
  "images": [
    {
      "uri": "textures/sfaf1_baseColor.jpeg"
    }
  ],
  "materials": [
    {
      "doubleSided": true,
      "emissiveFactor": [
        0,
        0,
        0
      ],
      "extensions": {
        "KHR_materials_unlit": {}
      },
      "name": "sfaf1",
      "pbrMetallicRoughness": {
        "baseColorFactor": [
          1,
          1,
          1,
          1
        ],
        "baseColorTexture": {
          "index": 0,
          "texCoord": 0
        },
        "metallicFactor": 0,
        "roughnessFactor": 1
      }
    }
  ],
  "meshes": [
    {
      "primitives": [
        {
          "attributes": {
            "NORMAL": 1,
            "POSITION": 0,
            "TANGENT": 2,
            "TEXCOORD_0": 3
          },
          "indices": 4,
          "material": 0,
          "mode": 4
        }
      ]
    },
    {
      "primitives": [
        {
          "attributes": {
            "NORMAL": 6,
            "POSITION": 5,
            "TANGENT": 7,
            "TEXCOORD_0": 8
          },
          "indices": 9,
          "material": 0,
          "mode": 4
        }
      ]
    },
    {
      "primitives": [
        {
          "attributes": {
            "NORMAL": 11,
            "POSITION": 10,
            "TANGENT": 12,
            "TEXCOORD_0": 13
          },
          "indices": 14,
          "material": 0,
          "mode": 4
        }
      ]
    }
  ],
  "nodes": [
    {
      "children": [
        1
      ],
      "name": "RootNode (gltf orientation matrix)",
      "rotation": [
        -0.70710678118654746,
        -0,
        -0,
        0.70710678118654757
      ]
    },
    {
      "children": [
        2
      ],
      "matrix": [
        1,
        0,
        0,
        0,
        0,
        0,
        -1,
        0,
        0,
        1,
        0,
        0,
        0,
        -4.0678534507751465,
        -5.4335231781005859,
        1
      ],
      "name": "RootNode (model correction matrix)"
    },
    {
      "children": [
        3,
        4,
        5
      ],
      "name": "sfaf1.obj.cleaner.materialmerger.gles"
    },
    {
      "mesh": 0,
      "name": ""
    },
    {
      "mesh": 1,
      "name": ""
    },
    {
      "mesh": 2,
      "name": ""
    }
  ],
  "samplers": [
    {
      "magFilter": 9729,
      "minFilter": 9987,
      "wrapS": 10497,
      "wrapT": 10497
    }
  ],
  "scene": 0,
  "scenes": [
    {
      "name": "OSG_Scene",
      "nodes": [
        0
      ]
    }
  ],
  "textures": [
    {
      "sampler": 0,
      "source": 0
    }
  ]
}

